<?xml version="1.0" encoding="iso-8859-1"?>
<!-- Generator: Adobe Illustrator 19.0.0, SVG Export Plug-In . SVG Version: 6.00 Build 0)  -->
<svg version="1.1" id="Capa_1" xmlns="http://www.w3.org/2000/svg" xmlns:xlink="http://www.w3.org/1999/xlink" x="0px" y="0px"
	 viewBox="0 0 512 512" style="enable-background:new 0 0 512 512;" xml:space="preserve">
<g>
	<g>
		<path d="M457.664,447.965c-1.624-3.935-3.304-8.002-4.687-11.968c-9.722-27.885-6.516-66.754-3.122-107.906
			c1.925-23.345,3.916-47.483,3.916-72.091c0-24.607-1.991-48.748-3.916-72.093c-3.394-41.152-6.6-80.021,3.122-107.906
			c1.382-3.964,3.062-8.031,4.686-11.965c7.231-17.514,16.23-39.31-4.288-55.435c-6.056-4.758-13.425-7.17-21.901-7.17
			c-10.156,0-20.564,3.371-30.627,6.632c-2.858,0.926-5.559,1.801-8.258,2.604c-4.575,1.361-9.691,2.023-15.641,2.023
			c-10.609,0-23.149-2.099-37.669-4.53C317.563,4.525,290.536,0,255.999,0c-34.54,0-61.565,4.525-83.281,8.161
			c-14.519,2.432-27.058,4.53-37.668,4.53c-5.949,0-11.065-0.662-15.642-2.024c-2.699-0.803-5.399-1.678-8.258-2.603
			c-10.063-3.261-20.469-6.632-30.626-6.632c-8.477,0-15.845,2.412-21.9,7.17c-20.518,16.124-11.519,37.92-4.288,55.434
			c1.624,3.934,3.303,8.001,4.686,11.966c9.721,27.884,6.515,66.753,3.121,107.904c-1.925,23.346-3.916,47.486-3.916,72.095
			c0,24.608,1.991,48.748,3.916,72.093c3.394,41.151,6.6,80.021-3.121,107.904c-1.383,3.966-3.063,8.034-4.687,11.969
			c-7.23,17.512-16.229,39.307,4.289,55.431c6.056,4.758,13.425,7.171,21.902,7.171c10.157,0,20.564-3.372,30.629-6.632
			c2.857-0.926,5.556-1.8,8.254-2.604c4.575-1.361,9.691-2.024,15.641-2.024c10.609,0,23.149,2.1,37.67,4.531
			c21.715,3.635,48.741,8.16,83.279,8.16c34.54,0,61.566-4.525,83.282-8.161c14.519-2.432,27.058-4.531,37.667-4.531
			c5.949,0,11.066,0.663,15.642,2.025c2.697,0.803,5.397,1.677,8.255,2.603c10.064,3.261,20.47,6.632,30.627,6.632
			c8.479,0,15.848-2.413,21.903-7.172C473.893,487.273,464.895,465.478,457.664,447.965z M429.924,185.553
			c1.893,22.941,3.849,46.665,3.849,70.449c0,23.783-1.956,47.506-3.849,70.447c-0.72,8.733-1.43,17.366-2.017,25.85h-31.658
			c-5.522,0-10,4.478-10,10c0,5.522,4.478,10,10,10h30.553c-0.989,25.953,0.205,49.956,7.292,70.284
			c1.566,4.495,3.355,8.827,5.085,13.017c8.093,19.604,9.317,26.193,1.838,32.07c-2.515,1.977-5.549,2.897-9.546,2.897
			c-6.998,0-15.481-2.748-24.463-5.658c-2.845-0.922-5.786-1.874-8.713-2.745c-6.455-1.922-13.439-2.856-21.348-2.856
			c-12.272,0-25.571,2.227-40.97,4.806c-20.984,3.513-47.101,7.886-79.978,7.886c-32.874,0-58.991-4.373-79.977-7.887
			c-15.399-2.578-28.699-4.806-40.972-4.806c-7.909,0-14.893,0.934-21.347,2.855c-2.928,0.872-5.868,1.824-8.712,2.745
			c-8.982,2.91-17.467,5.659-24.465,5.659c-3.997,0-7.03-0.921-9.545-2.897c-7.479-5.877-6.256-12.465,1.84-32.071
			c1.729-4.19,3.519-8.522,5.085-13.018c11.116-31.888,7.742-72.809,4.169-116.132c-1.893-22.942-3.849-46.665-3.849-70.449
			c0-23.785,1.956-47.509,3.849-70.451c0.72-8.733,1.431-17.366,2.018-25.85h31.657c5.522,0,10-4.478,10-10c0-5.522-4.478-10-10-10
			H85.198c0.988-25.952-0.206-49.954-7.292-70.282c-1.566-4.494-3.354-8.826-5.084-13.015c-8.097-19.608-9.32-26.197-1.841-32.074
			c2.515-1.977,5.547-2.896,9.543-2.896c6.998,0,15.481,2.748,24.462,5.658c2.845,0.922,5.787,1.875,8.716,2.746
			c6.455,1.922,13.438,2.856,21.348,2.856c12.273,0,25.572-2.228,40.971-4.806C197.005,24.373,223.122,20,255.999,20
			c32.875,0,58.992,4.373,79.978,7.887c15.399,2.578,28.699,4.806,40.972,4.806c7.909,0,14.893-0.935,21.347-2.855
			c2.929-0.872,5.871-1.825,8.716-2.747c8.982-2.91,17.466-5.658,24.463-5.658c3.996,0,7.029,0.92,9.544,2.896
			c7.479,5.878,6.255,12.467-1.841,32.076c-1.729,4.188-3.518,8.519-5.084,13.014C422.977,101.307,426.352,142.229,429.924,185.553z
			"/>
	</g>
</g>
<g>
	<g>
		<path d="M327.232,216.83c3.5-10.854,4.963-25.195,4.963-46.191c-0.002-3.573-1.908-6.874-5.002-8.66
			c-3.094-1.787-6.906-1.787-10,0c-8.449,4.878-15.918,8.811-22.508,12.282c-2.392,1.261-4.684,2.471-6.895,3.656
			c0.179-1.777,0.27-3.573,0.27-5.38c0-17.258-8.326-33.467-22.061-43.597v-4.88c0-5.522-4.478-10-10-10c-5.522,0-10,4.478-10,10
			v4.88c-13.735,10.13-22.061,26.339-22.061,43.597c0,1.807,0.092,3.602,0.27,5.38c-2.211-1.186-4.503-2.396-6.895-3.656
			c-6.59-3.471-14.059-7.404-22.508-12.282c-3.094-1.787-6.906-1.787-10,0c-3.094,1.786-5,5.088-5,8.66
			c0,20.996,1.464,35.337,4.963,46.19c-3.07,1.792-4.963,5.078-4.963,8.636c0,20.996,1.464,35.337,4.963,46.19
			c-3.07,1.792-4.963,5.078-4.963,8.636c0,30.109,3.005,46.543,10.716,58.612c8.085,12.654,20.621,19.258,37.971,28.396
			c5.257,2.769,11.083,5.841,17.509,9.442v40.164c0,5.522,4.477,10,10,10c5.522,0,10-4.478,10-10V376.74
			c6.425-3.601,12.25-6.674,17.506-9.441c17.35-9.139,29.887-15.742,37.972-28.396c7.712-12.069,10.716-28.503,10.716-58.612
			c0-3.558-1.893-6.844-4.963-8.635c3.5-10.854,4.963-25.195,4.963-46.191C332.195,221.907,330.302,218.621,327.232,216.83z
			 M304.006,191.956c2.486-1.31,5.097-2.684,7.84-4.151c-1.633,33.17-9.687,37.412-37.661,52.147
			c-2.487,1.31-5.097,2.685-7.84,4.151C267.978,210.934,276.032,206.691,304.006,191.956z M311.846,242.633
			c-1.633,33.17-9.687,37.411-37.661,52.147c-2.487,1.308-5.097,2.683-7.84,4.15c1.633-33.169,9.685-37.41,37.658-52.144
			C306.491,245.475,309.101,244.1,311.846,242.633z M237.812,349.604c-27.975-14.735-36.028-18.977-37.661-52.146
			c2.744,1.468,5.354,2.842,7.841,4.152c27.974,14.735,36.027,18.977,37.66,52.145C242.909,352.288,240.298,350.914,237.812,349.604
			z M237.812,294.778c-27.975-14.735-36.028-18.978-37.661-52.147c2.745,1.469,5.354,2.844,7.843,4.154
			c27.973,14.734,36.025,18.976,37.658,52.144C242.909,297.461,240.298,296.087,237.812,294.778z M237.812,239.953
			c-27.975-14.735-36.028-18.977-37.661-52.147c2.743,1.467,5.353,2.84,7.84,4.15c27.975,14.735,36.028,18.977,37.661,52.148
			C242.909,242.636,240.298,241.262,237.812,239.953z M255.999,198.564c-7.554-6.427-12.061-15.945-12.061-26.027
			c-0.001-10.082,4.507-19.6,12.061-26.027c7.554,6.427,12.061,15.945,12.061,26.027
			C268.06,182.619,263.552,192.137,255.999,198.564z M274.185,349.604c-2.487,1.31-5.097,2.685-7.84,4.151
			c1.633-33.168,9.686-37.41,37.66-52.145c2.487-1.311,5.097-2.685,7.841-4.152C310.213,330.628,302.16,334.869,274.185,349.604z"/>
	</g>
</g>
<g>
	<g>
		<path d="M255.997,85.092c-5.523,0-10,4.478-10,10v0.236c0,5.523,4.477,10,10,10c5.522,0,10-4.478,10-10v-0.236
			C265.997,89.57,261.519,85.092,255.997,85.092z"/>
	</g>
</g>
<g>
	<g>
		<path d="M144.716,139.701h-0.236c-5.523,0-10,4.478-10,10c0,5.522,4.477,10,10,10h0.236c5.522,0,10-4.478,10-10
			C154.716,144.179,150.239,139.701,144.716,139.701z"/>
	</g>
</g>
<g>
	<g>
		<path d="M367.517,352.299h-0.236c-5.522,0-10,4.478-10,10c0,5.522,4.478,10,10,10h0.236c5.522,0,10-4.478,10-10
			C377.517,356.776,373.04,352.299,367.517,352.299z"/>
	</g>
</g>
<g>
</g>
<g>
</g>
<g>
</g>
<g>
</g>
<g>
</g>
<g>
</g>
<g>
</g>
<g>
</g>
<g>
</g>
<g>
</g>
<g>
</g>
<g>
</g>
<g>
</g>
<g>
</g>
<g>
</g>
</svg>
